<svg  viewBox="0 0 511 157" fill="none" xmlns="http://www.w3.org/2000/svg">
<g filter="url(#filter0_i)">
<path d="M40.7817 47.4544C41.2214 29.0084 56.3122 14.1903 74.864 14.1903C93.4188 14.1903 108.512 29.0134 108.946 47.4637C127.412 47.8907 142.249 62.993 142.249 81.5609C142.249 100.126 127.417 115.226 108.956 115.658L108.956 115.667L40.7722 115.667L40.7719 48.2824C40.7719 48.2381 40.772 48.1938 40.7722 48.1495L40.7722 47.4544L40.7817 47.4544Z" fill="url(#paint0_linear)"/>
<path d="M40.7817 47.4544C41.2214 29.0084 56.3122 14.1903 74.864 14.1903C93.4188 14.1903 108.512 29.0134 108.946 47.4637C127.412 47.8907 142.249 62.993 142.249 81.5609C142.249 100.126 127.417 115.226 108.956 115.658L108.956 115.667L40.7722 115.667L40.7719 48.2824C40.7719 48.2381 40.772 48.1938 40.7722 48.1495L40.7722 47.4544L40.7817 47.4544Z" fill="url(#paint1_radial)"/>
</g>
<path d="M106.006 109.324L121.672 109.324C121.672 104.506 121.672 99.6879 121.672 94.87L137.339 94.87C137.339 89.6479 137.339 84.4259 137.339 79.2038L121.672 79.2038L121.672 50.2275C121.672 50.2275 118.88 48.9016 116.08 48.2331C114.459 47.8462 113.003 47.596 111.348 47.4037C109.269 47.162 106.006 47.1637 106.006 47.1637L106.006 79.2038L77.8275 79.2036L77.8275 94.8698L106.006 94.8699L106.006 109.324Z" fill="url(#paint2_angular)"/>
<path fill-rule="evenodd" clip-rule="evenodd" d="M74.8953 14.1214C56.0667 14.1214 40.8032 29.3849 40.8032 48.2134L40.8032 81.5586L40.8016 81.5586L40.8016 115.652L60.3761 115.652L60.3761 82.3056L74.8952 82.3056C93.7238 82.3056 108.987 67.042 108.987 48.2134C108.987 29.3849 93.7238 14.1214 74.8953 14.1214Z" fill="url(#paint3_angular)"/>
<path fill-rule="evenodd" clip-rule="evenodd" d="M74.8953 14.1214C56.0667 14.1214 40.8032 29.3849 40.8032 48.2134L40.8032 81.5586L40.8016 81.5586L40.8016 115.652L60.3761 115.652L60.3761 82.3056L74.8952 82.3056C93.7238 82.3056 108.987 67.042 108.987 48.2134C108.987 29.3849 93.7238 14.1214 74.8953 14.1214Z" fill="url(#paint4_linear)"/>
<g filter="url(#filter1_i)">
<path d="M60.3171 48.0378C60.3171 39.854 66.9514 33.2197 75.1352 33.2197V33.2197C83.319 33.2197 89.9532 39.854 89.9532 48.0378V48.0378C89.9532 56.2216 83.319 62.8559 75.1352 62.8559H60.3171V48.0378Z" fill="url(#paint5_linear)"/>
</g>
<path d="M174.822 39.6198C176.756 39.1618 178.843 38.8565 181.082 38.7038C183.321 38.5511 185.535 38.4748 187.723 38.4748C190.064 38.4748 192.431 38.7038 194.822 39.1618C197.265 39.6198 199.479 40.4595 201.464 41.6809C203.449 42.9023 205.052 44.5817 206.273 46.7191C207.545 48.8566 208.181 51.5793 208.181 54.8872C208.181 58.1442 207.596 60.8923 206.426 63.1315C205.255 65.3708 203.703 67.2028 201.769 68.6278C199.835 70.0019 197.622 70.9942 195.128 71.6049C192.634 72.2156 190.064 72.521 187.418 72.521C187.163 72.521 186.731 72.521 186.12 72.521C185.56 72.521 184.95 72.521 184.288 72.521C183.677 72.4701 183.067 72.4192 182.456 72.3683C181.845 72.3174 181.413 72.2665 181.158 72.2156V92.5212H174.822V39.6198ZM187.876 43.971C186.553 43.971 185.28 43.9965 184.059 44.0474C182.838 44.0983 181.871 44.2255 181.158 44.429V66.5667C181.413 66.6685 181.82 66.7448 182.38 66.7957C182.939 66.7957 183.525 66.8212 184.135 66.872C184.746 66.872 185.331 66.872 185.891 66.872C186.451 66.872 186.858 66.872 187.112 66.872C188.843 66.872 190.548 66.7194 192.227 66.414C193.957 66.0578 195.51 65.4471 196.884 64.5819C198.258 63.7168 199.352 62.4954 200.166 60.9178C201.031 59.3402 201.464 57.33 201.464 54.8872C201.464 52.8006 201.057 51.0703 200.242 49.6963C199.479 48.2713 198.436 47.1517 197.113 46.3375C195.84 45.4723 194.39 44.8616 192.761 44.5054C191.133 44.1491 189.504 43.971 187.876 43.971Z" fill="#005EB8"/>
<path d="M243.189 77.7119H223.494L218.151 92.5212H211.891L232.12 38.2458H235.021L255.327 92.5212H248.685L243.189 77.7119ZM225.555 72.2156H241.281L235.326 55.9559L233.418 47.8642H233.342L231.433 56.1086L225.555 72.2156Z" fill="#005EB8"/>
<path d="M298.148 90.3074C296.622 91.4779 294.688 92.2922 292.347 92.7502C290.006 93.2082 287.512 93.4372 284.866 93.4372C281.66 93.4372 278.657 92.9029 275.858 91.8342C273.059 90.7146 270.616 89.0351 268.53 86.7959C266.443 84.5567 264.789 81.7068 263.568 78.2462C262.347 74.7347 261.736 70.5871 261.736 65.8033C261.736 60.816 262.397 56.592 263.721 53.1314C265.095 49.6199 266.876 46.77 269.064 44.5817C271.303 42.3425 273.797 40.714 276.545 39.6962C279.293 38.6783 282.092 38.1694 284.942 38.1694C287.996 38.1694 290.489 38.3476 292.423 38.7038C294.357 39.0091 296.011 39.4417 297.385 40.0015L295.858 45.5741C293.416 44.4036 289.93 43.8184 285.4 43.8184C283.314 43.8184 281.253 44.2 279.217 44.9634C277.181 45.7268 275.349 46.9736 273.721 48.7039C272.143 50.4342 270.871 52.6989 269.904 55.4979C268.937 58.2969 268.453 61.732 268.453 65.8033C268.453 69.4675 268.911 72.6736 269.828 75.4218C270.744 78.1699 271.99 80.46 273.568 82.2921C275.197 84.1242 277.079 85.4982 279.217 86.4143C281.405 87.3303 283.772 87.7883 286.316 87.7883C288.606 87.7883 290.591 87.5593 292.271 87.1013C294.001 86.6433 295.451 86.058 296.622 85.3455L298.148 90.3074Z" fill="#005EB8"/>
<path d="M307.56 39.0855H336.644V44.7344H313.896V62.2155H334.736V67.8644H313.896V86.8723H337.026V92.5212H307.56V39.0855Z" fill="#005EB8"/>
<path d="M381.998 76.1088H372.991V92.5212H367.036V76.1088H343.525V73.5897L368.868 38.2458H372.991V70.7652H381.998V76.1088ZM367.036 54.1238L367.8 47.8642H367.571L364.899 53.0551L354.135 67.6354L350.471 71.3759L355.815 70.7652H367.036V54.1238Z" fill="#005EB8"/>
<path d="M421.687 92.5212H390.084V39.0855H396.42V86.8723H421.687V92.5212Z" fill="#005EB8"/>
<path d="M427.153 39.0855H433.489V92.5212H427.153V39.0855Z" fill="#005EB8"/>
<path d="M447.918 39.0855H477.002V44.7344H454.254V62.9789H475.476V68.6278H454.254V92.5212H447.918V39.0855Z" fill="#005EB8"/>
<path d="M481.247 39.0855H510.331V44.7344H487.583V62.2155H508.423V67.8644H487.583V86.8723H510.713V92.5212H481.247V39.0855Z" fill="#005EB8"/>
<path d="M381.241 76.0325H372.234V92.4449H366.279V76.0325H342.768V73.5133L368.111 38.1694H372.234V70.6889H381.241V76.0325ZM366.279 54.0475L367.043 47.7879H366.814L364.142 52.9788L353.378 67.5591L349.714 71.2996L355.058 70.6889H366.279V54.0475Z" fill="#4D90CB"/>
<defs>
<filter id="filter0_i" x="0.0187988" y="0.0585938" width="156.358" height="156.358" filterUnits="userSpaceOnUse" color-interpolation-filters="sRGB">
<feFlood flood-opacity="0" result="BackgroundImageFix"/>
<feBlend mode="normal" in="SourceGraphic" in2="BackgroundImageFix" result="shape"/>
<feColorMatrix in="SourceAlpha" type="matrix" values="0 0 0 0 0 0 0 0 0 0 0 0 0 0 0 0 0 0 127 0" result="hardAlpha"/>
<feOffset/>
<feGaussianBlur stdDeviation="1.5"/>
<feComposite in2="hardAlpha" operator="arithmetic" k2="-1" k3="1"/>
<feColorMatrix type="matrix" values="0 0 0 0 0 0 0 0 0 0.368627 0 0 0 0 0.721569 0 0 0 1 0"/>
<feBlend mode="normal" in2="shape" result="effect1_innerShadow"/>
</filter>
<filter id="filter1_i" x="60.3171" y="33.2197" width="29.6361" height="29.6361" filterUnits="userSpaceOnUse" color-interpolation-filters="sRGB">
<feFlood flood-opacity="0" result="BackgroundImageFix"/>
<feBlend mode="normal" in="SourceGraphic" in2="BackgroundImageFix" result="shape"/>
<feColorMatrix in="SourceAlpha" type="matrix" values="0 0 0 0 0 0 0 0 0 0 0 0 0 0 0 0 0 0 127 0" result="hardAlpha"/>
<feOffset/>
<feGaussianBlur stdDeviation="3"/>
<feComposite in2="hardAlpha" operator="arithmetic" k2="-1" k3="1"/>
<feColorMatrix type="matrix" values="0 0 0 0 0 0 0 0 0 0.368627 0 0 0 0 0.721569 0 0 0 0.95 0"/>
<feBlend mode="normal" in2="shape" result="effect1_innerShadow"/>
</filter>
<linearGradient id="paint0_linear" x1="129.431" y1="72.3435" x2="40.77" y2="115.665" gradientUnits="userSpaceOnUse">
<stop stop-color="#1174CB"/>
<stop offset="0.0990416" stop-color="#559CDA"/>
<stop offset="0.5625" stop-color="#B0D1EE"/>
<stop offset="1" stop-color="white"/>
</linearGradient>
<radialGradient id="paint1_radial" cx="0" cy="0" r="1" gradientUnits="userSpaceOnUse" gradientTransform="translate(99.277 99.4576) rotate(161.856) scale(33.9802 36.9975)">
<stop stop-color="white"/>
<stop offset="1" stop-color="#97C2E8" stop-opacity="0"/>
</radialGradient>
<radialGradient id="paint2_angular" cx="0" cy="0" r="1" gradientUnits="userSpaceOnUse" gradientTransform="translate(102.998 75.7879) rotate(45.5963) scale(34.5674 30.8766)">
<stop stop-color="#0D61B6"/>
<stop offset="1" stop-color="white"/>
</radialGradient>
<radialGradient id="paint3_angular" cx="0" cy="0" r="1" gradientUnits="userSpaceOnUse" gradientTransform="translate(108.98 47.4435) rotate(131.827) scale(99.7364 69.9082)">
<stop stop-color="#0D61B6"/>
<stop offset="0.0769237" stop-color="#4586C7"/>
<stop offset="0.75" stop-color="#0D61B6"/>
<stop offset="0.889594" stop-color="#0D61B6"/>
<stop offset="0.955539" stop-color="#4C8AC9"/>
<stop offset="0.97141" stop-color="#71A2D4"/>
<stop offset="0.984576" stop-color="#92B8DE"/>
<stop offset="1" stop-color="white"/>
</radialGradient>
<linearGradient id="paint4_linear" x1="57.5882" y1="92.8286" x2="75.2559" y2="82.8379" gradientUnits="userSpaceOnUse">
<stop stop-color="#005EB8"/>
<stop offset="1" stop-color="#005EB8" stop-opacity="0"/>
</linearGradient>
<linearGradient id="paint5_linear" x1="75.1352" y1="33.2197" x2="75.1352" y2="62.8559" gradientUnits="userSpaceOnUse">
<stop stop-color="#98C3E9"/>
<stop offset="1" stop-color="white"/>
</linearGradient>
</defs>
</svg>
