<?xml version="1.0" encoding="utf-8"?>
<!-- Generator: Adobe Illustrator 24.0.3, SVG Export Plug-In . SVG Version: 6.00 Build 0)  -->
<svg version="1.1" id="Layer_1" xmlns="http://www.w3.org/2000/svg" xmlns:xlink="http://www.w3.org/1999/xlink" x="0px" y="0px"
	 viewBox="0 0 253.7 55.3" style="enable-background:new 0 0 253.7 55.3;" xml:space="preserve">
<style type="text/css">
	.st0{fill:#69AAF1;}
	.st1{clip-path:url(#SVGID_2_);}
	.st2{clip-path:url(#SVGID_4_);}
	.st3{fill:#0265D6;}
	.st4{opacity:0.9;}
	.st5{clip-path:url(#SVGID_6_);}
	.st6{clip-path:url(#SVGID_8_);}
	.st7{fill:#004E93;}
</style>
<g>
	<path class="st0" d="M74.6,49.4c0.6,0.8,1.4,1.3,2.6,1.3c1.3,0,2-0.7,2-1.4c0-2.3-5.3-1-5.2-4.3c0.1-1.5,1.2-2.5,3-2.4
		c1.1,0,2.5,0.6,3.1,1.5l-0.8,0.7c-0.7-0.8-1.3-1.2-2.3-1.2c-1,0-1.7,0.5-1.7,1.3c0,2,5.2,0.9,5.2,4.3c0,1.8-1.5,2.6-3.1,2.6
		c-1.4,0-2.8-0.6-3.6-1.8L74.6,49.4z"/>
	<path class="st0" d="M81.3,51.8v-9h1.2v1.2l0.1-0.1c0.7-0.8,1.8-1.3,2.6-1.3c1.1,0,2,0.6,2.3,1.4c0.8-0.8,1.8-1.4,2.9-1.4
		c1.2,0,2.5,0.5,2.5,2.7v6.4h-1.2v-6.4c0-1.2-0.6-1.7-1.4-1.7c-1.1,0-1.9,0.7-2.5,1.3v6.7h-1.2v-6.4c0-1.2-0.6-1.7-1.4-1.7
		c-1.1,0-1.9,0.7-2.5,1.3v6.7h-1.2V51.8z"/>
	<path class="st0" d="M94.3,44.5c0.6-1,1.7-1.9,3.4-1.9c1.5,0,3.1,0.7,3.1,2.7v4.5c0,1,0.1,1.4,0.2,2h-1.2l-0.1-1.2
		C99,51.3,98,52,96.7,52s-2.6-0.8-2.6-2.5c0-2,1.5-3,5.5-3.6v-0.5c0-1.2-0.7-1.7-1.9-1.7c-1.3,0-2.1,0.8-2.3,1.4L94.3,44.5z
		 M99.6,47c-2.9,0.5-4.2,1.3-4.2,2.6c0,0.8,0.8,1.3,1.4,1.3c0.9,0,2.1-0.6,2.8-1.4V47z"/>
	<path class="st0" d="M102.2,42.8h1.2v1.8l0,0c0.7-1.2,1.4-2,2.9-2v1.2c-1.5,0-2.4,1-3,2.9v5h-1.2v-8.9H102.2z"/>
	<path class="st0" d="M108.3,42.8v-3h1.2v3h2.1v1h-2.1v6.4c0,0.4,0.3,0.6,1,0.6c0.4,0,0.8,0,1.1-0.1v1c-0.2,0.1-0.7,0.1-1.4,0.1
		c-1.3,0-2-0.3-2-1.4v-6.6h-1.4v-1C106.9,42.8,108.3,42.8,108.3,42.8z"/>
	<path class="st0" d="M118.1,39.3V44l0,0c0.7-0.8,1.7-1.3,2.7-1.3c1.3,0,2.6,0.7,2.6,2.6v6.5h-1.2v-6.5c0-1.2-0.6-1.5-1.4-1.5
		c-0.9,0-2,0.7-2.6,1.3v6.7h-1.2V39.3H118.1z"/>
	<path class="st0" d="M131.8,49.8c-0.6,1-1.4,2.1-3.4,2.1c-2,0-3.9-1.3-3.9-4.6c0-2.9,1.4-4.6,3.6-4.6c1.9,0,3.4,1.2,3.4,4v0.8h-5.9
		c0,2,1.1,3.3,2.7,3.3c1.1,0,2-0.6,2.5-1.5L131.8,49.8z M130.2,46.4c0-1.7-0.8-2.8-2.2-2.8c-1.5,0-2.3,1.1-2.4,2.8H130.2z"/>
	<path class="st0" d="M132.4,44.5c0.6-1,1.7-1.9,3.4-1.9c1.5,0,3.1,0.7,3.1,2.7v4.5c0,1,0.1,1.4,0.2,2h-1.2l-0.1-1.2
		c-0.6,0.7-1.7,1.4-3,1.4c-1.3,0-2.6-0.8-2.6-2.5c0-2,1.5-3,5.5-3.6v-0.5c0-1.2-0.8-1.7-1.9-1.7c-1.3,0-2.1,0.8-2.3,1.4L132.4,44.5z
		 M137.7,47c-2.9,0.5-4.2,1.3-4.2,2.6c0,0.8,0.8,1.3,1.4,1.3c0.9,0,2.1-0.6,2.8-1.4L137.7,47L137.7,47z"/>
	<path class="st0" d="M141.6,39.3v12.5h-1.2V39.3H141.6z"/>
	<path class="st0" d="M144.1,42.8v-3h1.2v3h2.1v1h-2.1v6.4c0,0.4,0.3,0.6,1,0.6c0.4,0,0.8,0,1.1-0.1v1c-0.2,0.1-0.7,0.1-1.4,0.1
		c-1.3,0-2-0.3-2-1.4v-6.6h-1.4v-1C142.6,42.8,144.1,42.8,144.1,42.8z"/>
	<path class="st0" d="M149.9,39.3V44l0,0c0.7-0.8,1.7-1.3,2.7-1.3c1.3,0,2.6,0.7,2.6,2.6v6.5h-1.2v-6.5c0-1.2-0.6-1.5-1.4-1.5
		c-0.9,0-2,0.7-2.6,1.3v6.7h-1.2V39.3H149.9z"/>
	<path class="st0" d="M161.9,45.5c-0.3-1.1-1-1.8-2.2-1.8c-1.5,0-2.5,1.3-2.5,3.6c0,2.3,0.9,3.6,2.5,3.6c1.1,0,1.8-0.4,2.5-1.7
		l1,0.4c-0.9,1.5-1.7,2.3-3.5,2.3c-2.3,0-3.7-1.8-3.7-4.6c0-2.9,1.4-4.6,3.7-4.6c1.9,0,2.7,1,3.3,2.5L161.9,45.5z"/>
	<path class="st0" d="M164.2,44.5c0.6-1,1.7-1.9,3.4-1.9c1.5,0,3.1,0.7,3.1,2.7v4.5c0,1,0.1,1.4,0.2,2h-1.2l-0.1-1.2
		c-0.6,0.7-1.7,1.4-3,1.4s-2.6-0.8-2.6-2.5c0-2,1.5-3,5.5-3.6v-0.5c0-1.2-0.8-1.7-1.9-1.7c-1.3,0-2.1,0.8-2.3,1.4L164.2,44.5z
		 M169.5,47c-2.9,0.5-4.2,1.3-4.2,2.6c0,0.8,0.8,1.3,1.4,1.3c0.9,0,2.1-0.6,2.8-1.4L169.5,47L169.5,47z"/>
	<path class="st0" d="M172.2,42.8h1.2v1.8l0,0c0.7-1.2,1.4-2,2.9-2v1.2c-1.5,0-2.4,1-3,2.9v5h-1.2v-8.9H172.2z"/>
	<path class="st0" d="M183.6,49.8c-0.6,1-1.4,2.1-3.4,2.1c-2,0-3.9-1.3-3.9-4.6c0-2.9,1.4-4.6,3.6-4.6c1.9,0,3.4,1.2,3.4,4v0.8h-5.9
		c0,2,1.1,3.3,2.7,3.3c1.1,0,2-0.6,2.5-1.5L183.6,49.8z M182.2,46.4c0-1.7-0.8-2.8-2.2-2.8c-1.5,0-2.3,1.1-2.4,2.8H182.2z"/>
</g>
<g>
	<g>
		<defs>
			<path id="SVGID_1_" d="M198.8,31.9c-2.3-15.1,8-29.2,23.1-31.5s29.2,8,31.6,23.1c2.3,15.1-8,29.2-23,31.5
				C215.3,57.3,201.2,47,198.8,31.9z"/>
		</defs>
		<clipPath id="SVGID_2_">
			<use xlink:href="#SVGID_1_"  style="overflow:visible;"/>
		</clipPath>
		<g class="st1">
			<g>
				<g>
					<defs>
						<path id="SVGID_3_" d="M221.4-1.1l-1.7-2.1l-25.9,8.4l-2.4,34.4l23.9,20.7l23.5,5.9c0,0,6.9-5.2,6.8-5.8c-0.1-0.5-0.5-2-0.5-2
							l-6.7-43.8L221.4-1.1z"/>
					</defs>
					<clipPath id="SVGID_4_">
						<use xlink:href="#SVGID_3_"  style="overflow:visible;"/>
					</clipPath>
					<g class="st2">
						<g id="XMLID_45_">
							<path id="XMLID_46_" class="st3" d="M246.7-13.6c-10-1.2-19.5,3.3-26.2,11.2c7-1.7,14.9-1.5,22.7,1.1
								c19.3,6.4,30.5,24.9,25,41.3c-3.3,10-12.1,16.9-22.8,19.3c14.1-2.2,26-15.4,28.1-32.7C275.8,6.5,263.9-11.6,246.7-13.6z
								 M238,59.5c-17.2-2.1-29.1-20.1-26.7-40.3c1-8.4,4.4-15.9,9.2-21.6c-10.4,2.5-18.9,9.4-22.2,19.1c-5.5,16.4,5.7,34.9,25,41.3
								c7.5,2.5,15.2,2.8,22,1.3C242.9,59.7,240.5,59.8,238,59.5z"/>
						</g>
					</g>
				</g>
			</g>
			<g class="st4">
				<g>
					<defs>
						<path id="SVGID_5_" d="M205,42.3l-1.3,2.1L219,64.6l30.9-8.4l10.8-27.3l-2-22.4c0,0-6.7-4.5-7.1-4.2c-0.4,0.2-1.6,1.1-1.6,1.1
							l-36.4,19.3L205,42.3z"/>
					</defs>
					<clipPath id="SVGID_6_">
						<use xlink:href="#SVGID_5_"  style="overflow:visible;"/>
					</clipPath>
					<g class="st5">
						<g id="XMLID_37_">
							<path id="XMLID_38_" class="st0" d="M225.4-17.2c10.8-0.1,20.4,6,26.3,15.6c-6.9-12.9-23.7-20-41-16.2
								c-20.3,4.4-33.8,22-30,39.3c2.2,10.1,9.7,17.8,19.7,21.6c-4-6.2-6.4-13.9-6.5-22.3C193.6,0.1,207.7-17,225.4-17.2z
								 M251.8-1.6c1.2,2.2,2.1,4.6,2.6,7.1c3.8,17.3-9.7,34.9-30,39.3c-8.5,1.9-16.9,1.1-24-1.6c5.9,9.2,15.4,15.1,26,15
								c17.7-0.2,31.8-17.3,31.6-38.1C257.8,12,255.5,4.5,251.8-1.6z"/>
						</g>
					</g>
				</g>
			</g>
			<g>
				<g>
					<defs>
						<path id="SVGID_7_" d="M249.7,41.5h2.8l10.1-26.2l-26-24.4l-32.1,5.7l-20,15c0,0-0.3,8.9,0.2,9.2s1.9,0.9,1.9,0.9l39.5,23.2
							L249.7,41.5z"/>
					</defs>
					<clipPath id="SVGID_8_">
						<use xlink:href="#SVGID_7_"  style="overflow:visible;"/>
					</clipPath>
					<g class="st6">
						<g id="XMLID_29_">
							<path id="XMLID_30_" class="st7" d="M235.7,59c-17.7,11.2-39.8,8.1-49.4-6.9c-5.8-9.2-5.6-20.7-0.6-30.9
								c-7.4,12.7-4.6,30.9,7.9,43.8c14.6,15.1,36.8,17.3,49.6,4.9c7.5-7.2,10.1-17.8,8.1-28.3C248.1,48.4,242.8,54.5,235.7,59z
								 M240.1,20.2c6.1,6.3,9.9,13.9,11.3,21.5c4.8-10,4.8-21.2-0.9-30.2c-9.6-15.1-31.7-18.2-49.4-6.9
								C194.2,9,189,14.9,185.7,21.4c1.3-2.2,2.8-4.2,4.7-6C203.3,2.9,225.5,5.1,240.1,20.2z"/>
						</g>
					</g>
				</g>
			</g>
		</g>
	</g>
</g>
<g>
	<path class="st7" d="M0,34.7V10.4h5.4v2.8c2.1-1.8,4-3.2,6.3-3.2c3.4,0,5.2,1.7,5.2,6.2v18.5h-5.6V16.8c0-1.6-0.5-2.7-2.1-2.7
		c-1.2,0-2.5,1.1-3.7,2.2v18.3H0V34.7z"/>
	<path class="st7" d="M25.1,23.9v3.2c0,2.4,1.4,3.5,3.3,3.5c2.4,0,3.3-1.5,3.3-3.4h5.6c-0.3,5-3.3,7.9-8.9,7.9
		c-5.4,0-8.9-3.3-8.9-8.6v-7.9c0-5.3,3.6-8.6,8.9-8.6c5.2,0,8.9,3.3,8.9,8.2v5.7C37.3,23.9,25.1,23.9,25.1,23.9z M31.7,19.3V18
		c0-2.1-1-3.5-3.3-3.5s-3.3,1.3-3.3,3.5v1.3H31.7z"/>
	<path class="st3" d="M51,17.8c-0.8-2.2-2.2-3.3-3.9-3.3c-1.3,0-2.3,0.9-2.3,2.2c0,3.7,11,3.8,11,11.1c0,4.8-3.4,7.4-8.1,7.4
		c-3.4,0-6.4-0.8-9.1-6.9l5-1.4c0.5,2.3,1.9,3.7,4.1,3.7c1.7,0,2.7-0.8,2.7-2.1c0-4.6-11-3.5-11-11.7c0-4.6,3.7-6.8,7.7-6.8
		c4.2,0,7.1,2.4,8.5,6.1L51,17.8z"/>
	<path class="st3" d="M70.2,18.8v-1.1c0-1.9-1.3-2.9-3.3-2.9s-3.3,1-3.3,2.9v9.6c0,1.9,1.3,2.9,3.3,2.9s3.3-1,3.3-2.9v-1.5h5.6v0.1
		c0,6.4-3.3,9.2-8.9,9.2S58,32.3,58,25.9v-6.8c0-6.4,3.3-9.2,8.9-9.2c5.5,0,8.8,2.7,8.9,8.8h-5.6V18.8z"/>
	<path class="st3" d="M78.6,6.2V1.1h5.6v5.1H78.6z M84.3,10.4v24.3h-5.6V10.4H84.3z"/>
	<path class="st3" d="M92.4,23.9v3.2c0,2.4,1.4,3.5,3.3,3.5c2.4,0,3.3-1.5,3.3-3.4h5.6c-0.3,5-3.3,7.9-8.9,7.9
		c-5.4,0-8.9-3.3-8.9-8.6v-7.9c0-5.3,3.6-8.6,8.9-8.6c5.2,0,8.9,3.3,8.9,8.2v5.7C104.6,23.9,92.4,23.9,92.4,23.9z M99,19.3V18
		c0-2.1-1-3.5-3.3-3.5s-3.3,1.3-3.3,3.5v1.3H99z"/>
	<path class="st3" d="M107.5,34.7V10.4h5.4v2.8c2.1-1.8,4-3.2,6.3-3.2c3.4,0,5.2,1.7,5.2,6.2v18.5h-5.6V16.8c0-1.6-0.5-2.7-2.1-2.7
		c-1.2,0-2.5,1.1-3.7,2.2v18.3h-5.5V34.7z"/>
	<path class="st3" d="M126.1,16v-4.5h2.2V4.9h5.6v6.6h3.6V16H134v12.4c0,1.2,1,1.8,2.5,1.8c0.4,0,0.8,0,1.1,0v4.7
		c-1.1,0.2-2.1,0.2-3.2,0.2c-3.7,0-6.1-1.3-6.1-4.8V16H126.1z"/>
	<path class="st3" d="M140.3,6.2V1.1h5.6v5.1H140.3z M146,10.4v24.3h-5.6V10.4H146z"/>
	<path class="st3" d="M160.1,6.9h-1.6c-1.3,0-1.9,0.8-1.9,2v2.5h3.3V16h-3.3v18.6H151V16h-2.5v-4.5h2.5V9.1c0-5.6,2.4-7.1,6.5-7.1
		c0.8,0,1.7,0.1,2.7,0.3L160.1,6.9L160.1,6.9z M162.4,7.3V2.2h5.6v5.1H162.4z M168,11.5v23.2h-5.6V11.5H168z"/>
	<path class="st3" d="M182.8,18.8v-1.1c0-1.9-1.3-2.9-3.3-2.9s-3.3,1-3.3,2.9v9.6c0,1.9,1.3,2.9,3.3,2.9s3.3-1,3.3-2.9v-1.5h5.6v0.1
		c0,6.4-3.3,9.2-8.9,9.2c-5.6,0-8.9-2.8-8.9-9.2v-6.8c0-6.4,3.3-9.2,8.9-9.2c5.5,0,8.8,2.7,8.9,8.8h-5.6V18.8z"/>
</g>
<g>
	<path class="st0" d="M185.9,39.1c1.3,0,2.5,1,2.5,2.5c0,1.4-1.2,2.5-2.5,2.5c-1.4,0-2.5-1-2.5-2.5
		C183.4,40.1,184.5,39.1,185.9,39.1z M185.9,39.5c-1.1,0-2,0.9-2,2.1c0,1.2,0.9,2.1,2,2.1c1.1,0,2-0.9,2-2.1
		C187.9,40.4,187,39.5,185.9,39.5z M185.3,43h-0.4v-2.8h1.1c0.7,0,1,0.3,1,0.8c0,0.5-0.3,0.7-0.7,0.8l0.8,1.3h-0.5l-0.8-1.2h-0.5V43
		z M185.3,41.4h0.5c0.5,0,0.7-0.2,0.7-0.5c0-0.3-0.1-0.4-0.6-0.4h-0.6V41.4z"/>
</g>
</svg>
